<?xml version="1.0" encoding="iso-8859-1"?>
<!-- Generator: Adobe Illustrator 17.1.0, SVG Export Plug-In . SVG Version: 6.00 Build 0)  -->
<!DOCTYPE svg PUBLIC "-//W3C//DTD SVG 1.1//EN" "http://www.w3.org/Graphics/SVG/1.1/DTD/svg11.dtd">
<svg version="1.1" id="Layer_1" xmlns="http://www.w3.org/2000/svg" xmlns:xlink="http://www.w3.org/1999/xlink" x="0px" y="0px"
	 viewBox="109.373 566.156 596.455 600.018" style="enable-background:new 109.373 566.156 596.455 600.018;" xml:space="preserve">
<g>
	<g>
		<g>
			<path style="fill:#60D8FF;" d="M654.715,623.103h-40.617v67.884c0,8.581-6.773,15.602-15.052,15.602s-15.052-7.021-15.052-15.602
				v-67.884h-17.286v67.884c0,8.581-6.773,15.602-15.052,15.602s-15.052-7.021-15.052-15.602v-67.884H278.631v67.884
				c0,8.581-6.773,15.602-15.052,15.602c-8.279,0-15.052-7.021-15.052-15.602v-67.884H230.48v67.884
				c0,8.581-6.773,15.602-15.052,15.602s-15.052-7.021-15.052-15.602v-67.884h-18.048h-21.807c-28.579,0-51.148,24.2-51.148,53.062
				v436.947c0,29.643,23.314,53.062,51.148,53.062H654.68c28.579,0,51.148-24.2,51.148-53.062V676.165
				C705.863,646.505,682.55,623.103,654.715,623.103z"/>
		</g>
	</g>
	<g>
		<g>
			<path style="fill:#60D8FF;" d="M614.098,581.758c0-8.581-6.773-15.602-15.052-15.602s-15.052,7.021-15.052,15.602v41.343h30.086
				v-41.343H614.098z"/>
		</g>
	</g>
	<g>
		<g>
			<path style="fill:#60D8FF;" d="M566.709,581.758c0-8.581-6.773-15.602-15.052-15.602s-15.052,7.021-15.052,15.602v41.343h30.086
				v-41.343H566.709z"/>
		</g>
	</g>
	<g>
		<g>
			<path style="fill:#60D8FF;" d="M278.649,581.758c0-8.581-6.773-15.602-15.052-15.602c-8.279,0-15.052,7.021-15.052,15.602v41.343
				h30.086v-41.343H278.649z"/>
		</g>
	</g>
	<g>
		<g>
			<path style="fill:#60D8FF;" d="M230.497,581.758c0-8.581-6.773-15.602-15.052-15.602s-15.052,7.021-15.052,15.602v41.343h30.086
				v-41.343H230.497z"/>
		</g>
	</g>
</g>
</svg>
