<?xml version="1.0" encoding="utf-8"?>
<!-- Generator: Adobe Illustrator 17.1.0, SVG Export Plug-In . SVG Version: 6.00 Build 0)  -->
<!DOCTYPE svg PUBLIC "-//W3C//DTD SVG 1.1//EN" "http://www.w3.org/Graphics/SVG/1.1/DTD/svg11.dtd">
<svg version="1.1" id="Layer_1" xmlns="http://www.w3.org/2000/svg" xmlns:xlink="http://www.w3.org/1999/xlink" x="0px" y="0px"
	 viewBox="150.1 585 600.1 500.2" enable-background="new 150.1 585 600.1 500.2" xml:space="preserve">
<g>
	<path fill="#FFFFFF" d="M451.7,625l10.8,0c167.3,0.1,222.8,0.1,236.2,0.5c3.8,1.3,5.7,2.9,7.1,4.4c2.1,2.3,3.4,4.7,4.4,7.7l0.1,141
		c0,85.9,0,135.2-0.3,145.7c-1.3,5.9-6,10.9-11.7,12.5c-9.1,0.1-43.6,0.3-162.2,0.3H372.3h-16.6L344,948.8L319.8,973l-0.1,0.1
		l-0.1,0.1c-8.6,8.7-21.8,21.9-34.1,34.3l-0.2-30.1l-0.2-39l-38.9-0.8l-7-0.1c-2.8-0.1-7.2-0.1-12.6-0.2c-3.9,0-8.3-0.1-12.2-0.1
		l-0.1,0l-0.1,0c-2.8,0-8.9-0.1-11.8-0.2c-4.2-1.3-5.6-2.5-7.8-4.8l-0.2-0.3l-0.2-0.3c-1.1-1.1-2.2-2.3-3.5-6
		c-0.3-13.6-0.3-64.3-0.3-144.8V637.5c1.9-6.2,6-10.4,11.9-12c12.4-0.3,70-0.4,222-0.5L451.7,625 M451.7,585
		c-211.8,0.1-252.1,0.1-255.1,0.7c-22.1,4-39.3,19.9-45.3,42l-1.2,4.6v148.5c0,122,0.1,149.1,0.6,151.2c2.8,11.5,7.2,20,14.6,27.6
		c7.9,8.4,16,13,27.6,16.3c3.3,0.9,5.1,1,20.6,1.2c9.4,0.1,20.3,0.1,24.3,0.3l7.3,0.1l0.3,49c0.3,55.1,0,50.8,3.9,54.8
		c2.5,2.6,5.7,3.8,9.1,3.8c2.5,0,5.1-0.7,7.4-2.2c1-0.7,14.5-13.9,30-29.4c15.4-15.4,39-39,52.1-52.3l24.2-24.2h163.9
		c107.1,0,164.9-0.1,166.8-0.4c24.2-3.9,43.5-23.6,46.9-47.9c0.4-2.7,0.4-43.8,0.4-150.1l-0.1-146.4l-1.2-4.5
		c-2.7-9.7-7.3-17.9-13.7-24.9c-7.6-8.2-17.2-13.7-29.3-16.9C703.1,585.2,684.4,585.2,451.7,585L451.7,585z"/>
</g>
</svg>
