<?xml version="1.0" encoding="iso-8859-1"?>
<!-- Generator: Adobe Illustrator 17.1.0, SVG Export Plug-In . SVG Version: 6.00 Build 0)  -->
<!DOCTYPE svg PUBLIC "-//W3C//DTD SVG 1.1//EN" "http://www.w3.org/Graphics/SVG/1.1/DTD/svg11.dtd">
<svg version="1.1" id="Layer_1" xmlns="http://www.w3.org/2000/svg" xmlns:xlink="http://www.w3.org/1999/xlink" x="0px" y="0px"
	 viewBox="28.673 283.715 542.644 600.017" style="enable-background:new 28.673 283.715 542.644 600.017;" xml:space="preserve">
<path style="fill:#FFFFFF;" d="M245.794,700.223c-3.775,0-7.589-1.148-10.867-3.52c-8.392-6.02-10.305-17.729-4.298-26.172
	l50.711-70.952v-99.152c0-10.344,8.367-18.736,18.685-18.736c10.305,0,18.672,8.392,18.672,18.736v105.185
	c0,3.928-1.212,7.742-3.507,10.917l-54.218,75.837C257.337,697.506,251.61,700.223,245.794,700.223z"/>
<path style="fill:#FFFFFF;" d="M47.35,429.743c-3.763,0-7.551-1.135-10.854-3.482c-8.392-6.02-10.344-17.716-4.336-26.146
	c42.204-59.205,103.565-100.389,172.833-115.936c10.038-2.283,20.062,4.094,22.307,14.196c2.245,10.101-4.081,20.113-14.145,22.384
	c-60.264,13.52-113.743,49.436-150.564,101.141C58.918,427.039,53.166,429.743,47.35,429.743z"/>
<path style="fill:#FFFFFF;" d="M552.65,429.743c-5.841,0-11.594-2.729-15.229-7.844c-36.822-51.706-90.275-87.635-150.564-101.116
	c-10.076-2.258-16.428-12.283-14.145-22.384c2.245-10.088,12.117-16.427,22.307-14.196
	c69.307,15.509,130.655,56.693,172.808,115.936c6.007,8.418,4.069,20.113-4.349,26.134
	C560.175,428.62,556.374,429.743,552.65,429.743z"/>
<path style="fill:#FFFFFF;" d="M300.025,850.073c-134.928,0-244.717-110.146-244.717-245.507s109.776-245.494,244.717-245.494
	s244.717,110.133,244.717,245.507C544.729,739.927,434.953,850.073,300.025,850.073z M300.025,396.569
	c-114.342,0-207.372,93.323-207.372,208.01s93.03,208.022,207.372,208.022s207.359-93.323,207.359-208.022
	C507.385,489.866,414.355,396.569,300.025,396.569z"/>
<path style="fill:#FFFFFF;" d="M117.014,883.732c-3.061,0-6.135-0.765-9.005-2.347c-9.043-4.987-12.333-16.376-7.346-25.458
	l44.512-81.054c4.961-9.055,16.364-12.334,25.368-7.372c9.043,5.013,12.333,16.402,7.346,25.458l-44.512,81.054
	C129.985,880.212,123.595,883.732,117.014,883.732z"/>
<path style="fill:#FFFFFF;" d="M483.024,883.732c-6.594,0-12.971-3.52-16.364-9.706l-44.512-81.054
	c-5-9.043-1.696-20.445,7.346-25.458c9.005-5.013,20.42-1.709,25.381,7.372l44.512,81.054c4.987,9.068,1.671,20.471-7.346,25.458
	C489.146,882.966,486.06,883.732,483.024,883.732z"/>
</svg>
